#define 1655912860637_width 48
#define 1655912860637_height 48
static char 1655912860637_bits[] = {
  0x00, 0x00, 0x00, 0x00, 0x00, 0x00, 0x00, 0x00, 0x00, 0x00, 0x00, 0x00, 
  0x00, 0x00, 0x00, 0x00, 0x00, 0x00, 0x00, 0x00, 0x00, 0x00, 0x00, 0x00, 
  0x00, 0x00, 0x00, 0x00, 0x00, 0x00, 0x00, 0x00, 0x00, 0x00, 0x00, 0x00, 
  0x00, 0x00, 0x00, 0x00, 0x00, 0x00, 0x00, 0x00, 0x00, 0x00, 0x00, 0x00, 
  0x00, 0xFE, 0xFF, 0x01, 0x00, 0x00, 0x00, 0xFF, 0xFF, 0x03, 0x00, 0x00, 
  0x80, 0x03, 0x00, 0x07, 0x00, 0x00, 0x80, 0x7D, 0xFF, 0x7F, 0x00, 0x00, 
  0x80, 0xED, 0xFF, 0xFF, 0x00, 0x00, 0x80, 0xFD, 0x01, 0xC0, 0x01, 0x00, 
  0x80, 0xED, 0x9F, 0xFF, 0x7F, 0x00, 0x80, 0xFD, 0xDB, 0xFF, 0xFF, 0x00, 
  0x80, 0xC1, 0xFF, 0x00, 0xC0, 0x01, 0x80, 0xC1, 0x78, 0x1F, 0x80, 0x01, 
  0x80, 0xC1, 0x7F, 0x1B, 0x80, 0x01, 0x80, 0xE1, 0x60, 0x1F, 0x80, 0x01, 
  0x80, 0xF1, 0x60, 0x1B, 0x80, 0x01, 0x80, 0xD9, 0x60, 0x1B, 0x80, 0x01, 
  0x80, 0xD9, 0x70, 0x00, 0x80, 0x01, 0x80, 0xF1, 0x78, 0xC0, 0x80, 0x01, 
  0x80, 0xE1, 0x6C, 0xE0, 0x81, 0x01, 0x80, 0xC1, 0x6C, 0x30, 0x83, 0x01, 
  0x80, 0xC1, 0x78, 0x18, 0x86, 0x01, 0x80, 0xC1, 0x70, 0x18, 0x86, 0x01, 
  0x80, 0xC1, 0x60, 0x18, 0x86, 0x01, 0x80, 0xC1, 0x60, 0x30, 0x83, 0x01, 
  0x80, 0xC1, 0x60, 0xE0, 0x81, 0x01, 0x80, 0xC1, 0x60, 0xC0, 0x80, 0x01, 
  0x80, 0xC3, 0x60, 0x00, 0xB6, 0x01, 0x00, 0xFF, 0x60, 0x00, 0xB6, 0x01, 
  0x00, 0xFE, 0x60, 0x00, 0xBE, 0x01, 0x00, 0xC0, 0x61, 0x00, 0xB6, 0x01, 
  0x00, 0x80, 0x7F, 0x00, 0xBE, 0x01, 0x00, 0x00, 0x7F, 0x00, 0x80, 0x01, 
  0x00, 0x00, 0xE0, 0x00, 0xC0, 0x01, 0x00, 0x00, 0xC0, 0xFF, 0xFF, 0x00, 
  0x00, 0x00, 0x80, 0xFF, 0x7F, 0x00, 0x00, 0x00, 0x00, 0x00, 0x00, 0x00, 
  0x00, 0x00, 0x00, 0x00, 0x00, 0x00, 0x00, 0x00, 0x00, 0x00, 0x00, 0x00, 
  0x00, 0x00, 0x00, 0x00, 0x00, 0x00, 0x00, 0x00, 0x00, 0x00, 0x00, 0x00, 
  0x00, 0x00, 0x00, 0x00, 0x00, 0x00, 0x00, 0x00, 0x00, 0x00, 0x00, 0x00, 
  };
