#define 1655912895465_width 48
#define 1655912895465_height 48
static char 1655912895465_bits[] = {
  0x00, 0x00, 0x00, 0x00, 0x00, 0x00, 0x00, 0x00, 0x00, 0x00, 0x00, 0x00, 
  0x00, 0x00, 0x00, 0x00, 0x00, 0x00, 0x00, 0x00, 0x00, 0x00, 0x00, 0x00, 
  0x00, 0x00, 0x00, 0x00, 0x00, 0x00, 0x00, 0x00, 0x00, 0x00, 0x00, 0x00, 
  0x00, 0x00, 0x00, 0x00, 0x00, 0x00, 0x00, 0x00, 0x00, 0x00, 0x00, 0x00, 
  0x00, 0x00, 0x00, 0x00, 0x00, 0x00, 0x00, 0x00, 0x00, 0x00, 0x00, 0x00, 
  0x00, 0x00, 0x00, 0x00, 0x00, 0x00, 0x00, 0x00, 0x00, 0x00, 0x00, 0x00, 
  0x00, 0xE0, 0x00, 0x00, 0x07, 0x00, 0x00, 0xE0, 0x00, 0x00, 0x07, 0x00, 
  0x00, 0xE0, 0x00, 0x00, 0x07, 0x00, 0x00, 0x00, 0x07, 0xE0, 0x00, 0x00, 
  0x00, 0x00, 0x07, 0xE0, 0x00, 0x00, 0x00, 0x00, 0x07, 0xE0, 0x00, 0x00, 
  0x00, 0xE0, 0xFF, 0xFF, 0x07, 0x00, 0x00, 0xE0, 0xFF, 0xFF, 0x07, 0x00, 
  0x00, 0xE0, 0xFF, 0xFF, 0x07, 0x00, 0x00, 0xFC, 0xF8, 0x1F, 0x3F, 0x00, 
  0x00, 0xFC, 0xF8, 0x1F, 0x3F, 0x00, 0x00, 0xFC, 0xF8, 0x1F, 0x3F, 0x00, 
  0x80, 0xFF, 0xFF, 0xFF, 0xFF, 0x01, 0x80, 0xFF, 0xFF, 0xFF, 0xFF, 0x01, 
  0x80, 0xFF, 0xFF, 0xFF, 0xFF, 0x01, 0x80, 0xE3, 0xFF, 0xFF, 0xC7, 0x01, 
  0x80, 0xE3, 0xFF, 0xFF, 0xC7, 0x01, 0x80, 0xE3, 0xFF, 0xFF, 0xC7, 0x01, 
  0x80, 0xE3, 0x00, 0x00, 0xC7, 0x01, 0x80, 0xE3, 0x00, 0x00, 0xC7, 0x01, 
  0x80, 0xE3, 0x00, 0x00, 0xC7, 0x01, 0x00, 0x00, 0x3F, 0xFC, 0x00, 0x00, 
  0x00, 0x00, 0x3F, 0xFC, 0x00, 0x00, 0x00, 0x00, 0x3F, 0xFC, 0x00, 0x00, 
  0x00, 0x00, 0x00, 0x00, 0x00, 0x00, 0x00, 0x00, 0x00, 0x00, 0x00, 0x00, 
  0x00, 0x00, 0x00, 0x00, 0x00, 0x00, 0x00, 0x00, 0x00, 0x00, 0x00, 0x00, 
  0x00, 0x00, 0x00, 0x00, 0x00, 0x00, 0x00, 0x00, 0x00, 0x00, 0x00, 0x00, 
  0x00, 0x00, 0x00, 0x00, 0x00, 0x00, 0x00, 0x00, 0x00, 0x00, 0x00, 0x00, 
  0x00, 0x00, 0x00, 0x00, 0x00, 0x00, 0x00, 0x00, 0x00, 0x00, 0x00, 0x00, 
  0x00, 0x00, 0x00, 0x00, 0x00, 0x00, 0x00, 0x00, 0x00, 0x00, 0x00, 0x00, 
  };
