#define 1655912914366_width 48
#define 1655912914366_height 48
static char 1655912914366_bits[] = {
  0x00, 0x00, 0x00, 0x00, 0x00, 0x00, 0x00, 0x00, 0x00, 0x00, 0x00, 0x00, 
  0x00, 0x00, 0x00, 0x00, 0x00, 0x00, 0x00, 0x00, 0x00, 0x00, 0x00, 0x00, 
  0x00, 0x00, 0x00, 0x00, 0x00, 0x00, 0x00, 0x00, 0x00, 0x00, 0x00, 0x00, 
  0x00, 0x00, 0x00, 0x00, 0x00, 0x00, 0x00, 0x00, 0x00, 0x00, 0x00, 0x00, 
  0x00, 0x7F, 0xF8, 0xFF, 0x3F, 0x00, 0x00, 0x7F, 0xF8, 0xFF, 0x7F, 0x00, 
  0x00, 0x7F, 0xF8, 0xFF, 0xFF, 0x00, 0x00, 0x87, 0x3B, 0x00, 0xE0, 0x00, 
  0x00, 0x87, 0x3B, 0x00, 0xE0, 0x00, 0x00, 0x87, 0x3B, 0x07, 0xE7, 0x00, 
  0x00, 0x87, 0x3B, 0x07, 0xE7, 0x00, 0x00, 0x7F, 0x38, 0x06, 0xE6, 0x00, 
  0x00, 0x7F, 0x38, 0x00, 0xE0, 0x00, 0x00, 0x7E, 0x38, 0x00, 0xE7, 0x00, 
  0x00, 0x00, 0x38, 0x00, 0xE7, 0x00, 0x00, 0xFF, 0xFF, 0x1F, 0xE7, 0x00, 
  0x00, 0xFF, 0xFF, 0x1F, 0xE7, 0x00, 0x00, 0xFF, 0xFF, 0x1F, 0xE7, 0x00, 
  0x00, 0x07, 0x00, 0x1C, 0xE7, 0x00, 0x00, 0x07, 0x00, 0x1C, 0xE6, 0x00, 
  0x00, 0x07, 0x00, 0x1C, 0xE0, 0x00, 0x00, 0xE7, 0x3F, 0x1C, 0xE0, 0x00, 
  0x00, 0xE7, 0x7F, 0xFC, 0xFF, 0x00, 0x00, 0xE7, 0x7F, 0xFC, 0xFF, 0x00, 
  0x00, 0xE7, 0x70, 0xFC, 0xFF, 0x00, 0x00, 0xE7, 0x00, 0x1C, 0x00, 0x00, 
  0x00, 0xE7, 0x00, 0xDC, 0x7F, 0x00, 0x00, 0xE7, 0x70, 0xDC, 0xFF, 0x00, 
  0x00, 0xE7, 0x7F, 0xDC, 0xFF, 0x00, 0x00, 0xE7, 0x7F, 0xDC, 0x01, 0x00, 
  0x00, 0xC7, 0x7F, 0xDC, 0x1F, 0x00, 0x00, 0x07, 0x00, 0xDC, 0x1F, 0x00, 
  0x00, 0x07, 0x00, 0xDC, 0x01, 0x00, 0x00, 0xFF, 0xFF, 0xDF, 0xFF, 0x00, 
  0x00, 0xFE, 0xFF, 0xDF, 0xFF, 0x00, 0x00, 0xFC, 0xFF, 0x9F, 0xFF, 0x00, 
  0x00, 0x00, 0x00, 0x00, 0x00, 0x00, 0x00, 0x00, 0x00, 0x00, 0x00, 0x00, 
  0x00, 0x00, 0x00, 0x00, 0x00, 0x00, 0x00, 0x00, 0x00, 0x00, 0x00, 0x00, 
  0x00, 0x00, 0x00, 0x00, 0x00, 0x00, 0x00, 0x00, 0x00, 0x00, 0x00, 0x00, 
  0x00, 0x00, 0x00, 0x00, 0x00, 0x00, 0x00, 0x00, 0x00, 0x00, 0x00, 0x00, 
  };
