#define 1655912937700_width 48
#define 1655912937700_height 48
static char 1655912937700_bits[] = {
  0x00, 0x00, 0x00, 0x00, 0x00, 0x00, 0x00, 0x00, 0x00, 0x00, 0x00, 0x00, 
  0x00, 0x00, 0x00, 0x00, 0x00, 0x00, 0x00, 0x00, 0x00, 0x00, 0x00, 0x00, 
  0x00, 0x00, 0x00, 0x00, 0x00, 0x00, 0x00, 0x00, 0x00, 0x00, 0x00, 0x00, 
  0x00, 0x00, 0x00, 0x00, 0x00, 0x00, 0x00, 0x00, 0x00, 0x00, 0x00, 0x00, 
  0x00, 0xFC, 0xFF, 0x03, 0x00, 0x00, 0x00, 0xFE, 0xFF, 0x07, 0x00, 0x00, 
  0x00, 0xFF, 0xFF, 0x0F, 0x00, 0x00, 0x00, 0x07, 0x00, 0x0E, 0x00, 0x00, 
  0x00, 0x07, 0x00, 0x0E, 0x00, 0x00, 0x00, 0x07, 0x00, 0x0E, 0x00, 0x00, 
  0x00, 0x07, 0x3E, 0x0E, 0x00, 0x00, 0x00, 0x07, 0x3E, 0x0E, 0x00, 0x00, 
  0x00, 0x07, 0x3E, 0x0E, 0x00, 0x00, 0x00, 0x07, 0x38, 0x0E, 0x00, 0x00, 
  0x00, 0x07, 0x38, 0x0E, 0x00, 0x00, 0x00, 0x07, 0x38, 0x0E, 0x00, 0x00, 
  0x00, 0x07, 0x38, 0x0E, 0x00, 0x00, 0x00, 0x07, 0x38, 0x00, 0x00, 0x00, 
  0x00, 0x07, 0x38, 0x00, 0x00, 0x00, 0x00, 0xE7, 0x18, 0xFF, 0x3F, 0x00, 
  0x00, 0xE7, 0x9C, 0xFF, 0x7F, 0x00, 0x00, 0xC7, 0x9F, 0xFF, 0xFF, 0x00, 
  0x00, 0x87, 0x87, 0x03, 0xE0, 0x00, 0x00, 0x07, 0x80, 0x3B, 0xE0, 0x00, 
  0x00, 0x07, 0x80, 0x3B, 0xE0, 0x00, 0x00, 0x07, 0x80, 0x3B, 0xE0, 0x00, 
  0x00, 0xFF, 0x9F, 0xC3, 0xE1, 0x00, 0x00, 0xFE, 0x9F, 0xC3, 0xE1, 0x00, 
  0x00, 0xFE, 0x9F, 0xC3, 0xE1, 0x00, 0x00, 0x00, 0x80, 0x03, 0xEE, 0x00, 
  0x00, 0x00, 0x80, 0x03, 0xEE, 0x00, 0x00, 0x00, 0x80, 0x03, 0xEE, 0x00, 
  0x00, 0x00, 0x80, 0x03, 0xE0, 0x00, 0x00, 0x00, 0x80, 0xFF, 0xFF, 0x00, 
  0x00, 0x00, 0x00, 0xFF, 0x7F, 0x00, 0x00, 0x00, 0x00, 0xFE, 0x3F, 0x00, 
  0x00, 0x00, 0x00, 0x00, 0x00, 0x00, 0x00, 0x00, 0x00, 0x00, 0x00, 0x00, 
  0x00, 0x00, 0x00, 0x00, 0x00, 0x00, 0x00, 0x00, 0x00, 0x00, 0x00, 0x00, 
  0x00, 0x00, 0x00, 0x00, 0x00, 0x00, 0x00, 0x00, 0x00, 0x00, 0x00, 0x00, 
  0x00, 0x00, 0x00, 0x00, 0x00, 0x00, 0x00, 0x00, 0x00, 0x00, 0x00, 0x00, 
  };
