#define 1655976632815_width 22
#define 1655976632815_height 13
static char 1655976632815_bits[] = {
  0xF8, 0x1F, 0x00, 0x04, 0x20, 0x00, 0xD4, 0x6F, 0x00, 0x94, 0x63, 0x0F, 
  0x74, 0x6D, 0x19, 0x34, 0x63, 0x1D, 0x04, 0x60, 0x19, 0xF8, 0x7F, 0x19, 
  0xFF, 0xFF, 0x3F, 0xFF, 0xFF, 0x3F, 0x03, 0xC0, 0x30, 0xFF, 0xFF, 0x36, 
  0x03, 0xC0, 0x30, };
