#define 1655973159518_width 23
#define 1655973159518_height 7
static char 1655973159518_bits[] = {
  0x9B, 0xB8, 0x0A, 0xAB, 0xA8, 0x1A, 0xAB, 0xA8, 0x3A, 0xAB, 0xA8, 0x7A, 
  0x9B, 0xB8, 0x3B, 0x8B, 0x28, 0x1A, 0x8B, 0xAB, 0x0B, };
