#define 1656354521261_width 48
#define 1656354521261_height 48
static char 1656354521261_bits[] = {
  0x00, 0x00, 0x00, 0x00, 0x00, 0x00, 0x00, 0x00, 0x00, 0x00, 0x00, 0x00, 
  0x00, 0x00, 0x00, 0x00, 0x00, 0x00, 0x00, 0x00, 0x00, 0x00, 0x00, 0x00, 
  0x00, 0x00, 0x00, 0x00, 0x00, 0x00, 0x00, 0x00, 0x00, 0x00, 0x00, 0x00, 
  0x00, 0x00, 0x00, 0x00, 0x00, 0x00, 0x00, 0x00, 0x00, 0x00, 0x00, 0x00, 
  0x00, 0x00, 0x00, 0x00, 0x00, 0x00, 0x00, 0x00, 0x00, 0x00, 0x00, 0x00, 
  0x00, 0x00, 0x00, 0x00, 0x00, 0x00, 0x00, 0x00, 0x80, 0x01, 0x00, 0x00, 
  0x00, 0x00, 0x40, 0x03, 0x00, 0x00, 0x00, 0x00, 0x40, 0x03, 0x00, 0x00, 
  0x00, 0x00, 0xF0, 0x0F, 0x00, 0x00, 0x00, 0xC0, 0x0C, 0x30, 0x03, 0x00, 
  0xE0, 0xC3, 0xF1, 0xC7, 0x06, 0x00, 0x70, 0xE7, 0x73, 0xC7, 0x07, 0x00, 
  0xE0, 0x70, 0x77, 0x9F, 0x03, 0x00, 0x80, 0x73, 0xF7, 0x27, 0x03, 0x00, 
  0x70, 0xF7, 0x77, 0x90, 0x03, 0x00, 0xE0, 0x73, 0x77, 0x68, 0x07, 0x00, 
  0x00, 0x20, 0xCD, 0x99, 0x07, 0x00, 0x00, 0x38, 0x30, 0x66, 0x1F, 0x00, 
  0x00, 0x24, 0x25, 0xD6, 0x27, 0x00, 0x00, 0xFC, 0x2A, 0xBF, 0x3F, 0x00, 
  0x00, 0xB8, 0xC1, 0xEF, 0x1F, 0x00, 0x00, 0x60, 0xDF, 0xDA, 0x05, 0x00, 
  0x00, 0xE0, 0xFA, 0xF7, 0xF7, 0x07, 0x00, 0xC0, 0x77, 0x77, 0x77, 0x07, 
  0x00, 0xC0, 0x7D, 0xFF, 0x70, 0x07, 0x00, 0x80, 0xF7, 0xF7, 0xF0, 0x07, 
  0x00, 0x80, 0x77, 0xF4, 0xF7, 0x01, 0x00, 0x40, 0x7F, 0x5B, 0x77, 0x07, 
  0x00, 0xC0, 0xAF, 0xFF, 0x03, 0x00, 0x00, 0x80, 0xF1, 0x8F, 0x01, 0x00, 
  0x00, 0x00, 0xC0, 0x02, 0x00, 0x00, 0x00, 0x00, 0xC0, 0x02, 0x00, 0x00, 
  0x00, 0x00, 0x80, 0x01, 0x00, 0x00, 0x00, 0x00, 0x00, 0x00, 0x00, 0x00, 
  0x00, 0x00, 0x00, 0x00, 0x00, 0x00, 0x00, 0x00, 0x00, 0x00, 0x00, 0x00, 
  0x00, 0x00, 0x00, 0x00, 0x00, 0x00, 0x00, 0x00, 0x00, 0x00, 0x00, 0x00, 
  0x00, 0x00, 0x00, 0x00, 0x00, 0x00, 0x00, 0x00, 0x00, 0x00, 0x00, 0x00, 
  0x00, 0x00, 0x00, 0x00, 0x00, 0x00, 0x00, 0x00, 0x00, 0x00, 0x00, 0x00, 
  };
