#define 1656221828865_width 48
#define 1656221828865_height 48
static char 1656221828865_bits[] = {
  0x00, 0x00, 0x00, 0x00, 0x00, 0x00, 0x00, 0x00, 0x00, 0x00, 0x00, 0x00, 
  0x00, 0x00, 0x00, 0x00, 0x00, 0x00, 0x00, 0x00, 0x00, 0x00, 0x00, 0x00, 
  0x00, 0x00, 0x00, 0x00, 0x00, 0x00, 0x00, 0x00, 0x00, 0x00, 0x00, 0x00, 
  0x00, 0x00, 0x00, 0x00, 0x00, 0x00, 0x00, 0x00, 0x00, 0x00, 0x00, 0x00, 
  0x00, 0x00, 0x00, 0x00, 0x00, 0x00, 0x00, 0x00, 0x00, 0x00, 0x00, 0x00, 
  0x00, 0xFF, 0xFF, 0xFF, 0xFF, 0x00, 0x00, 0x01, 0x00, 0x00, 0x80, 0x00, 
  0x00, 0xFD, 0xFF, 0xFF, 0xBF, 0x01, 0x00, 0xED, 0xFF, 0x9F, 0xA4, 0x01, 
  0x00, 0xC5, 0xFF, 0x9F, 0xA4, 0x01, 0x00, 0xFD, 0xFF, 0xFF, 0xBF, 0x01, 
  0x00, 0x01, 0x00, 0x00, 0x80, 0x01, 0x00, 0x01, 0x00, 0x00, 0x80, 0x01, 
  0x00, 0x01, 0x00, 0x00, 0x80, 0x01, 0x00, 0x01, 0x00, 0x00, 0x80, 0x01, 
  0x00, 0xE1, 0x92, 0x03, 0x80, 0x01, 0x00, 0x11, 0x52, 0x00, 0x80, 0x01, 
  0x00, 0x61, 0x9C, 0x01, 0x80, 0x01, 0x00, 0x81, 0x10, 0x02, 0x80, 0x01, 
  0x00, 0x71, 0xCE, 0x01, 0x80, 0x01, 0x00, 0x01, 0x00, 0x00, 0x80, 0x01, 
  0x00, 0xF1, 0xF7, 0xE3, 0x83, 0x01, 0x00, 0x71, 0x70, 0x76, 0x87, 0x01, 
  0x00, 0x71, 0x70, 0x76, 0x80, 0x01, 0x00, 0xF1, 0x73, 0xE6, 0x83, 0x01, 
  0x00, 0x71, 0xF0, 0x03, 0x87, 0x01, 0x00, 0x71, 0x70, 0x70, 0x87, 0x01, 
  0x00, 0x71, 0x70, 0xE0, 0x83, 0x01, 0x00, 0x01, 0x00, 0x00, 0x80, 0x01, 
  0x00, 0x01, 0x00, 0x00, 0x80, 0x01, 0x00, 0x01, 0x00, 0x00, 0x80, 0x01, 
  0x00, 0x01, 0x00, 0x00, 0x80, 0x01, 0x00, 0xFF, 0xFF, 0xFF, 0xFF, 0x01, 
  0x00, 0xFE, 0xFF, 0xFF, 0xFF, 0x01, 0x00, 0x00, 0x00, 0x00, 0x00, 0x00, 
  0x00, 0x00, 0x00, 0x00, 0x00, 0x00, 0x00, 0x00, 0x00, 0x00, 0x00, 0x00, 
  0x00, 0x00, 0x00, 0x00, 0x00, 0x00, 0x00, 0x00, 0x00, 0x00, 0x00, 0x00, 
  0x00, 0x00, 0x00, 0x00, 0x00, 0x00, 0x00, 0x00, 0x00, 0x00, 0x00, 0x00, 
  0x00, 0x00, 0x00, 0x00, 0x00, 0x00, 0x00, 0x00, 0x00, 0x00, 0x00, 0x00, 
  };
