#define 1655912978465_width 48
#define 1655912978465_height 48
static char 1655912978465_bits[] = {
  0x00, 0x00, 0x00, 0x00, 0x00, 0x00, 0x00, 0x00, 0x00, 0x00, 0x00, 0x00, 
  0x00, 0x00, 0x00, 0x00, 0x00, 0x00, 0x00, 0x00, 0x00, 0x00, 0x00, 0x00, 
  0x00, 0x00, 0x00, 0x00, 0x00, 0x00, 0x00, 0x00, 0x00, 0x00, 0x00, 0x00, 
  0x00, 0x00, 0x00, 0x00, 0x00, 0x00, 0x00, 0x00, 0x00, 0x00, 0x00, 0x00, 
  0x00, 0xFF, 0xFF, 0x0F, 0x00, 0x00, 0x00, 0xFF, 0xFF, 0x0F, 0x00, 0x00, 
  0x00, 0xE3, 0x38, 0x0E, 0x00, 0x00, 0x00, 0xD3, 0x34, 0x0D, 0x00, 0x00, 
  0x00, 0xCB, 0xB2, 0x0C, 0x00, 0x00, 0x00, 0xC7, 0x71, 0x0C, 0x00, 0x00, 
  0x00, 0xFF, 0xFF, 0x0F, 0x00, 0x00, 0x00, 0xFF, 0xFF, 0x0F, 0x00, 0x00, 
  0x00, 0x00, 0x30, 0x0E, 0x00, 0x00, 0x00, 0x00, 0x30, 0x0D, 0x00, 0x00, 
  0x00, 0x00, 0xB0, 0x0C, 0x00, 0x00, 0x00, 0x00, 0x70, 0x0C, 0x00, 0x00, 
  0x00, 0x00, 0xF0, 0xFF, 0xFF, 0x00, 0x00, 0x00, 0xF0, 0xFF, 0xFF, 0x00, 
  0x00, 0x00, 0x30, 0x8E, 0xE3, 0x00, 0x00, 0x00, 0x30, 0x4D, 0xD3, 0x00, 
  0x00, 0x00, 0xB0, 0x2C, 0xCB, 0x00, 0x00, 0x00, 0x70, 0x1C, 0xC7, 0x00, 
  0x00, 0x00, 0xF0, 0xFF, 0xFF, 0x00, 0x00, 0x00, 0xF0, 0xFF, 0xFF, 0x00, 
  0x00, 0x00, 0x00, 0x00, 0xE3, 0x00, 0x00, 0x00, 0x00, 0x00, 0xD3, 0x00, 
  0x00, 0x00, 0x00, 0x00, 0xCB, 0x00, 0x00, 0x00, 0x00, 0x00, 0xC7, 0x00, 
  0x00, 0x00, 0x00, 0xFC, 0xFF, 0x00, 0x00, 0x00, 0x00, 0xFC, 0xFF, 0x00, 
  0x00, 0x00, 0x00, 0x8C, 0xE3, 0x00, 0x00, 0x60, 0xDB, 0x4C, 0xD3, 0x00, 
  0x00, 0x60, 0xDB, 0x2C, 0xCB, 0x00, 0x00, 0x00, 0x00, 0x1C, 0xC7, 0x00, 
  0x00, 0x00, 0x00, 0xFC, 0xFF, 0x00, 0x00, 0x00, 0x00, 0xFC, 0xFF, 0x00, 
  0x00, 0x00, 0x00, 0x00, 0x00, 0x00, 0x00, 0x00, 0x00, 0x00, 0x00, 0x00, 
  0x00, 0x00, 0x00, 0x00, 0x00, 0x00, 0x00, 0x00, 0x00, 0x00, 0x00, 0x00, 
  0x00, 0x00, 0x00, 0x00, 0x00, 0x00, 0x00, 0x00, 0x00, 0x00, 0x00, 0x00, 
  0x00, 0x00, 0x00, 0x00, 0x00, 0x00, 0x00, 0x00, 0x00, 0x00, 0x00, 0x00, 
  };
