#define 1655912996192_width 48
#define 1655912996192_height 48
static char 1655912996192_bits[] = {
  0x00, 0x00, 0x00, 0x00, 0x00, 0x00, 0x00, 0x00, 0x00, 0x00, 0x00, 0x00, 
  0x00, 0x00, 0x00, 0x00, 0x00, 0x00, 0x00, 0x00, 0x00, 0x00, 0x00, 0x00, 
  0x00, 0x00, 0x00, 0x00, 0x00, 0x00, 0x00, 0x00, 0x00, 0x00, 0x00, 0x00, 
  0x00, 0x00, 0x00, 0x00, 0x00, 0x00, 0x00, 0x00, 0x00, 0x00, 0x00, 0x00, 
  0x00, 0x00, 0x00, 0x00, 0x00, 0x00, 0x00, 0x00, 0x00, 0x00, 0x00, 0x00, 
  0x80, 0xFF, 0xFF, 0xFF, 0xFF, 0x00, 0x80, 0x88, 0x88, 0x88, 0x88, 0x00, 
  0x80, 0x88, 0x88, 0x88, 0x88, 0x01, 0x80, 0x88, 0x88, 0x88, 0x88, 0x01, 
  0x80, 0xFF, 0xFF, 0xFF, 0xFF, 0x01, 0x00, 0x88, 0x8F, 0xF8, 0xF8, 0x01, 
  0x00, 0x88, 0x89, 0x98, 0x18, 0x00, 0x00, 0x88, 0x89, 0x98, 0x18, 0x00, 
  0x00, 0xF8, 0xF9, 0x9F, 0x1F, 0x00, 0x00, 0x88, 0x89, 0x98, 0x18, 0x00, 
  0x00, 0x88, 0x89, 0x98, 0x18, 0x00, 0x00, 0x88, 0x89, 0x98, 0x18, 0x00, 
  0x00, 0xF8, 0xF9, 0x9F, 0x1F, 0x00, 0x80, 0xFF, 0xE3, 0xFF, 0xFF, 0x00, 
  0x80, 0x88, 0x24, 0x92, 0x88, 0x01, 0x80, 0x88, 0x28, 0x8E, 0x88, 0x01, 
  0x80, 0x88, 0x38, 0x8E, 0x88, 0x01, 0x80, 0xFF, 0xFF, 0xFF, 0xFF, 0x01, 
  0x80, 0x88, 0x3F, 0xFE, 0xFF, 0x01, 0x80, 0x88, 0x20, 0x86, 0x0F, 0x00, 
  0x80, 0x88, 0x20, 0x06, 0xF8, 0x00, 0x80, 0xFF, 0xEF, 0xFF, 0xFF, 0x00, 
  0x80, 0x98, 0x38, 0x8E, 0x88, 0x01, 0x80, 0x98, 0x38, 0x8E, 0x88, 0x01, 
  0x80, 0x9C, 0x38, 0x8E, 0xC8, 0x00, 0x80, 0x9F, 0xFF, 0xFF, 0x7F, 0x00, 
  0x00, 0x0F, 0xDF, 0xF7, 0x3F, 0x00, 0x00, 0x00, 0x00, 0x00, 0x00, 0x00, 
  0x00, 0x00, 0x00, 0x00, 0x00, 0x00, 0x00, 0x00, 0x00, 0x00, 0x00, 0x00, 
  0x00, 0x00, 0x00, 0x00, 0x00, 0x00, 0x00, 0x00, 0x00, 0x00, 0x00, 0x00, 
  0x00, 0x00, 0x00, 0x00, 0x00, 0x00, 0x00, 0x00, 0x00, 0x00, 0x00, 0x00, 
  0x00, 0x00, 0x00, 0x00, 0x00, 0x00, 0x00, 0x00, 0x00, 0x00, 0x00, 0x00, 
  0x00, 0x00, 0x00, 0x00, 0x00, 0x00, 0x00, 0x00, 0x00, 0x00, 0x00, 0x00, 
  };
