#define 1655932047337_width 8
#define 1655932047337_height 11
static char 1655932047337_bits[] = {
  0xFF, 0x01, 0x01, 0xFF, 0x10, 0x10, 0xFF, 0x01, 0x01, 0xFF, 0x10, };
