#define 1653772029766_width 16
#define 1653772029766_height 14
static char 1653772029766_bits[] = {
  0x20, 0x08, 0x70, 0x1C, 0x50, 0x14, 0xFC, 0x3F, 0x02, 0x40, 0x2E, 0x7A, 
  0x6F, 0xDB, 0x02, 0x40, 0x83, 0xC0, 0xFC, 0x3F, 0xF8, 0x1F, 0xC0, 0x07, 
  0xE0, 0x4F, 0xF0, 0x3F, };
